<?xml version="1.0" encoding="utf-8" ?>
<svg baseProfile="full" height="100%" version="1.1" viewBox="0,0,235,135" width="100%" xmlns="http://www.w3.org/2000/svg" xmlns:ev="http://www.w3.org/2001/xml-events" xmlns:xlink="http://www.w3.org/1999/xlink"><defs /><rect fill="none" height="85" rx="5" ry="5" stroke="#f97868" width="100" x="2.5" y="2.5" /><text fill="#f97868" font-size="12" x="104" y="15">Core</text><text fill="#f97868" font-size="12" x="104" y="27">LM</text><rect fill="none" height="20" rx="5" ry="5" stroke="#f97868" stroke-width="0.5" width="95" x="5" y="5" /><text fill="#f97868" font-size="9" x="10" y="18.5">Base</text><line stroke="#f97868" stroke-width="0.5" x1="57.25000000000001" x2="57.25000000000001" y1="5" y2="25" /><text fill="#505050" font-size="6" x="59.25000000000001" y="12.5">74M</text><text fill="#505050" font-size="6" x="80.25" y="12.5">149M</text><text fill="#505050" font-size="6" x="80.25" y="22.5">30hr</text><rect fill="none" height="20" rx="5" ry="5" stroke="#f97868" stroke-width="0.5" width="95" x="5" y="25" /><text fill="#f97868" font-size="12" x="10" y="39.5">+</text><text fill="#f97868" font-size="8" x="20" y="33.5">Adaptive</text><text fill="#f97868" font-size="8" x="20" y="43.5">Embed</text><line stroke="#f97868" stroke-width="0.5" x1="57.25000000000001" x2="57.25000000000001" y1="25" y2="45" /><text fill="#29a229" font-size="6" x="59.25000000000001" y="32.5">8.3M</text><text fill="#29a229" font-size="6" x="80.25" y="32.5">17M</text><text fill="#505050" font-size="6" x="59.25000000000001" y="42.5">39.5</text><rect fill="none" height="20" rx="5" ry="5" stroke="#f97868" stroke-width="0.5" width="95" x="5" y="45" /><text fill="#f97868" font-size="12" x="10" y="59.5">+</text><text fill="#f97868" font-size="8" x="20" y="53.5">Training</text><text fill="#f97868" font-size="8" x="20" y="63.5">Cache</text><line stroke="#f97868" stroke-width="0.5" x1="57.25000000000001" x2="57.25000000000001" y1="45" y2="65" /><text fill="#ff3126" font-size="6" x="80.25" y="52.5">18M</text><text fill="#29a229" font-size="6" x="59.25000000000001" y="62.5">33.7</text><rect fill="none" height="20" rx="5" ry="5" stroke="#f97868" stroke-width="0.5" width="95" x="5" y="65" /><text fill="#f97868" font-size="12" x="10" y="79.5">+</text><text fill="#f97868" font-size="8" x="20" y="73.5">Hebbian</text><text fill="#f97868" font-size="8" x="20" y="83.5">Softmax</text><line stroke="#f97868" stroke-width="0.5" x1="57.25000000000001" x2="57.25000000000001" y1="65" y2="85" /><text fill="#29a229" font-size="6" x="59.25000000000001" y="82.5">33.6</text><rect fill="none" height="20" rx="5" ry="5" stroke="#505050" stroke-width="0.5" width="95" x="5" y="90" /><text fill="#505050" font-size="9" x="10" y="98.5">Cache</text><text fill="#505050" font-size="9" x="10" y="108.5">Search</text><line stroke="#505050" stroke-width="0.5" x1="57.25000000000001" x2="57.25000000000001" y1="90" y2="110" /><text fill="#29a229" font-size="6" x="59.25000000000001" y="107.5">33.0</text><text fill="#505050" font-size="6" x="80.25" y="107.5">3min</text><rect fill="none" height="20" rx="5" ry="5" stroke="#007aa5" stroke-width="0.5" width="95" x="137.5" y="2.5" /><text fill="#007aa5" font-size="9" x="142.5" y="16.0">Teacher</text><line stroke="#007aa5" stroke-width="0.5" x1="189.75" x2="189.75" y1="2.5" y2="22.5" /><text fill="#505050" font-size="6" x="191.75" y="10.0">53.9M</text><text fill="#505050" font-size="6" x="212.75" y="10.0">111M</text><text fill="#505050" font-size="6" x="191.75" y="20.0">23.0</text><text fill="#505050" font-size="6" x="212.75" y="20.0">48hr</text><rect fill="none" height="20" rx="5" ry="5" stroke="#f97868" stroke-width="0.5" width="95" x="137.5" y="25.0" /><text fill="#f97868" font-size="9" x="142.5" y="38.5">Core LM</text><line stroke="#f97868" stroke-width="0.5" x1="189.75" x2="189.75" y1="25.0" y2="45.0" /><text fill="#505050" font-size="6" x="191.75" y="32.5">8.3M</text><text fill="#505050" font-size="6" x="212.75" y="32.5">18M</text><text fill="#505050" font-size="6" x="191.75" y="42.5">33.6</text><text fill="#505050" font-size="6" x="212.75" y="42.5">30hr</text><rect fill="none" height="20" rx="5" ry="5" stroke="#007aa5" stroke-width="0.5" width="95" x="137.5" y="45.0" /><text fill="#007aa5" font-size="12" x="142.5" y="59.5">+</text><text fill="#007aa5" font-size="9" x="152.5" y="58.5">Distill</text><line stroke="#007aa5" stroke-width="0.5" x1="189.75" x2="189.75" y1="45.0" y2="65.0" /><text fill="#29a229" font-size="6" x="191.75" y="62.5">32.4</text><rect fill="none" height="20" rx="5" ry="5" stroke="#007aa5" stroke-width="0.5" width="95" x="137.5" y="67.5" /><text fill="#007aa5" font-size="9" x="142.5" y="81.0">Prune</text><line stroke="#007aa5" stroke-width="0.5" x1="189.75" x2="189.75" y1="67.5" y2="87.5" /><text fill="#29a229" font-size="6" x="191.75" y="75.0">5.6M</text><text fill="#29a229" font-size="6" x="212.75" y="75.0">13M</text><text fill="#ff3126" font-size="6" x="191.75" y="85.0">34.6</text><text fill="#505050" font-size="6" x="212.75" y="85.0">15hr</text><rect fill="none" height="20" rx="5" ry="5" stroke="#505050" stroke-width="0.5" width="95" x="137.5" y="90.0" /><text fill="#505050" font-size="9" x="142.5" y="98.5">Cache</text><text fill="#505050" font-size="9" x="142.5" y="108.5">Search</text><line stroke="#505050" stroke-width="0.5" x1="189.75" x2="189.75" y1="90.0" y2="110.0" /><text fill="#29a229" font-size="6" x="191.75" y="107.5">33.8</text><text fill="#505050" font-size="6" x="212.75" y="107.5">3min</text><rect fill="none" height="20" rx="5" ry="5" stroke="#007aa5" stroke-width="0.5" width="95" x="137.5" y="112.5" /><text fill="#007aa5" font-size="9" x="142.5" y="126.0">Quantize</text><line stroke="#007aa5" stroke-width="0.5" x1="189.75" x2="189.75" y1="112.5" y2="132.5" /><text fill="#29a229" font-size="6" x="191.75" y="120.0">1.8M</text><text fill="#29a229" font-size="6" x="212.75" y="120.0">8.8M</text><text fill="#ff3126" font-size="6" x="191.75" y="130.0">34.1</text><text fill="#505050" font-size="6" x="212.75" y="130.0">2min</text></svg>